<svg id="svg" version="1.1" xmlns="http://www.w3.org/2000/svg" xmlns:xlink="http://www.w3.org/1999/xlink" width="400" height="400" viewBox="0, 0, 400,400"><g id="svgg"><path id="path0" d="M111.803 67.595 C 111.666 67.818,110.944 68.000,110.200 68.000 C 109.456 68.000,108.736 68.180,108.600 68.400 C 108.464 68.620,107.924 68.800,107.400 68.800 C 106.876 68.800,106.336 68.980,106.200 69.200 C 106.064 69.420,105.639 69.600,105.255 69.600 C 104.358 69.600,100.613 71.461,99.984 72.219 C 99.719 72.539,99.239 72.800,98.919 72.800 C 98.196 72.800,90.000 81.047,90.000 81.775 C 90.000 82.065,89.738 82.519,89.418 82.785 C 88.672 83.405,86.000 88.794,86.000 89.680 C 86.000 90.050,85.820 90.464,85.600 90.600 C 85.380 90.736,85.200 91.276,85.200 91.800 C 85.200 92.324,85.020 92.864,84.800 93.000 C 84.580 93.136,84.400 93.676,84.400 94.200 C 84.400 94.724,84.220 95.264,84.000 95.400 C 83.780 95.536,83.600 96.591,83.600 97.744 C 83.600 98.897,83.422 100.018,83.204 100.236 C 82.951 100.489,82.764 113.588,82.684 136.616 C 82.615 156.407,82.416 173.140,82.240 173.800 C 80.814 179.167,75.945 184.400,72.378 184.400 C 71.756 184.400,71.136 184.580,71.000 184.800 C 70.864 185.020,69.953 185.200,68.976 185.200 C 67.999 185.200,67.200 185.380,67.200 185.600 C 67.200 185.839,65.667 186.000,63.400 186.000 L 59.600 186.000 59.600 198.800 L 59.600 211.600 63.576 211.600 C 65.796 211.600,67.662 211.777,67.800 212.000 C 67.936 212.220,68.836 212.400,69.800 212.400 C 70.764 212.400,71.664 212.580,71.800 212.800 C 71.936 213.020,72.391 213.200,72.811 213.200 C 73.525 213.200,76.354 214.581,76.800 215.146 C 76.910 215.286,77.360 215.597,77.800 215.838 C 79.611 216.828,82.000 221.921,82.000 224.791 C 82.000 225.650,82.180 226.464,82.400 226.600 C 82.662 226.762,82.800 239.530,82.800 263.600 C 82.800 287.670,82.938 300.438,83.200 300.600 C 83.420 300.736,83.600 301.636,83.600 302.600 C 83.600 303.564,83.780 304.464,84.000 304.600 C 84.220 304.736,84.400 305.456,84.400 306.200 C 84.400 306.944,84.580 307.664,84.800 307.800 C 85.020 307.936,85.200 308.368,85.200 308.759 C 85.200 312.360,96.326 327.200,99.026 327.200 C 99.288 327.200,99.719 327.461,99.984 327.781 C 100.613 328.539,104.358 330.400,105.255 330.400 C 105.639 330.400,106.064 330.580,106.200 330.800 C 106.336 331.020,106.876 331.200,107.400 331.200 C 107.924 331.200,108.464 331.380,108.600 331.600 C 108.736 331.820,109.431 332.000,110.144 332.000 C 110.857 332.000,111.622 332.182,111.845 332.405 C 112.108 332.668,116.980 332.774,125.625 332.705 L 139.000 332.600 139.000 318.800 L 139.000 305.000 132.000 304.894 C 125.515 304.795,124.853 304.716,123.000 303.813 C 120.125 302.413,117.200 299.092,117.200 297.229 C 117.200 296.799,117.020 296.336,116.800 296.200 C 116.580 296.064,116.400 294.804,116.400 293.400 C 116.400 291.996,116.220 290.736,116.000 290.600 C 115.738 290.438,115.600 278.270,115.600 255.400 C 115.600 232.530,115.462 220.362,115.200 220.200 C 114.980 220.064,114.800 219.333,114.800 218.576 C 114.800 217.819,114.620 217.200,114.400 217.200 C 114.180 217.200,114.000 216.761,114.000 216.224 C 114.000 215.687,113.820 215.136,113.600 215.000 C 113.380 214.864,113.200 214.431,113.200 214.038 C 113.200 213.126,112.161 211.032,111.392 210.393 C 111.066 210.123,110.800 209.693,110.800 209.437 C 110.800 208.851,106.726 204.800,106.136 204.800 C 105.895 204.800,105.477 204.534,105.207 204.208 C 104.629 203.512,102.504 202.400,101.751 202.400 C 101.461 202.400,100.583 202.040,99.800 201.600 C 99.017 201.160,97.942 200.800,97.411 200.800 C 96.881 200.800,96.336 200.620,96.200 200.400 C 96.064 200.180,95.344 200.000,94.600 200.000 C 93.856 200.000,93.136 199.820,93.000 199.600 C 92.864 199.380,91.953 199.200,90.976 199.200 C 89.999 199.200,89.200 199.020,89.200 198.800 C 89.200 198.580,89.819 198.400,90.576 198.400 C 91.333 198.400,92.064 198.220,92.200 198.000 C 92.336 197.780,93.236 197.600,94.200 197.600 C 95.164 197.600,96.064 197.420,96.200 197.200 C 96.336 196.980,96.876 196.800,97.400 196.800 C 97.924 196.800,98.464 196.620,98.600 196.400 C 98.736 196.180,99.276 196.000,99.800 196.000 C 100.324 196.000,100.864 195.820,101.000 195.600 C 101.136 195.380,101.647 195.200,102.135 195.200 C 102.624 195.200,103.283 194.840,103.600 194.400 C 103.917 193.960,104.497 193.600,104.888 193.600 C 105.280 193.600,105.600 193.420,105.600 193.200 C 105.600 192.980,105.854 192.800,106.164 192.800 C 106.760 192.800,110.800 188.882,110.800 188.304 C 110.800 188.119,111.160 187.580,111.600 187.108 C 112.040 186.636,112.400 186.013,112.400 185.725 C 112.400 185.436,112.580 185.200,112.800 185.200 C 113.020 185.200,113.200 184.761,113.200 184.224 C 113.200 183.687,113.380 183.136,113.600 183.000 C 113.820 182.864,114.000 182.324,114.000 181.800 C 114.000 181.276,114.180 180.736,114.400 180.600 C 114.620 180.464,114.800 179.744,114.800 179.000 C 114.800 178.256,114.980 177.536,115.200 177.400 C 115.462 177.238,115.600 165.337,115.600 143.000 C 115.600 120.663,115.738 108.762,116.000 108.600 C 116.220 108.464,116.400 107.384,116.400 106.200 C 116.400 105.016,116.580 103.936,116.800 103.800 C 117.020 103.664,117.200 103.201,117.200 102.771 C 117.200 100.908,120.125 97.587,123.000 96.187 C 124.853 95.284,125.515 95.205,132.000 95.106 L 139.000 95.000 139.000 81.200 L 139.000 67.400 125.527 67.295 C 116.745 67.226,111.967 67.331,111.803 67.595 M260.982 67.703 C 260.876 67.979,260.836 74.234,260.894 81.603 L 261.000 95.000 268.000 95.106 C 274.485 95.205,275.147 95.284,277.000 96.187 C 279.875 97.587,282.800 100.908,282.800 102.771 C 282.800 103.201,282.980 103.664,283.200 103.800 C 283.420 103.936,283.600 105.196,283.600 106.600 C 283.600 108.004,283.780 109.264,284.000 109.400 C 284.262 109.562,284.400 121.730,284.400 144.600 C 284.400 167.470,284.538 179.638,284.800 179.800 C 285.020 179.936,285.200 180.667,285.200 181.424 C 285.200 182.181,285.380 182.800,285.600 182.800 C 285.820 182.800,286.000 183.239,286.000 183.776 C 286.000 184.313,286.180 184.864,286.400 185.000 C 286.620 185.136,286.800 185.569,286.800 185.962 C 286.800 186.874,287.839 188.968,288.608 189.607 C 288.934 189.877,289.200 190.307,289.200 190.563 C 289.200 191.149,293.274 195.200,293.864 195.200 C 294.105 195.200,294.523 195.466,294.793 195.792 C 295.371 196.488,297.496 197.600,298.249 197.600 C 298.539 197.600,299.417 197.960,300.200 198.400 C 300.983 198.840,302.058 199.200,302.589 199.200 C 303.119 199.200,303.664 199.380,303.800 199.600 C 303.936 199.820,304.656 200.000,305.400 200.000 C 306.144 200.000,306.864 200.180,307.000 200.400 C 307.136 200.620,308.047 200.800,309.024 200.800 C 310.001 200.800,310.800 200.980,310.800 201.200 C 310.800 201.420,310.181 201.600,309.424 201.600 C 308.667 201.600,307.936 201.780,307.800 202.000 C 307.664 202.220,306.764 202.400,305.800 202.400 C 304.836 202.400,303.936 202.580,303.800 202.800 C 303.664 203.020,303.124 203.200,302.600 203.200 C 302.076 203.200,301.536 203.380,301.400 203.600 C 301.264 203.820,300.724 204.000,300.200 204.000 C 299.676 204.000,299.136 204.180,299.000 204.400 C 298.864 204.620,298.313 204.800,297.776 204.800 C 297.239 204.800,296.800 204.980,296.800 205.200 C 296.800 205.420,296.564 205.600,296.275 205.600 C 295.987 205.600,295.364 205.960,294.892 206.400 C 294.420 206.840,293.862 207.200,293.652 207.200 C 293.186 207.200,289.200 211.225,289.200 211.696 C 289.200 211.881,288.840 212.420,288.400 212.892 C 287.960 213.364,287.600 213.987,287.600 214.275 C 287.600 214.564,287.420 214.800,287.200 214.800 C 286.980 214.800,286.800 215.239,286.800 215.776 C 286.800 216.313,286.620 216.864,286.400 217.000 C 286.180 217.136,286.000 217.676,286.000 218.200 C 286.000 218.724,285.820 219.264,285.600 219.400 C 285.380 219.536,285.200 220.256,285.200 221.000 C 285.200 221.744,285.020 222.464,284.800 222.600 C 284.538 222.762,284.400 234.530,284.400 256.600 C 284.400 278.670,284.262 290.438,284.000 290.600 C 283.780 290.736,283.600 291.996,283.600 293.400 C 283.600 294.804,283.420 296.064,283.200 296.200 C 282.980 296.336,282.800 296.799,282.800 297.229 C 282.800 299.521,278.314 304.000,276.019 304.000 C 275.656 304.000,275.185 304.175,274.970 304.390 C 274.756 304.604,271.525 304.829,267.790 304.890 L 261.000 305.000 261.000 318.800 L 261.000 332.600 274.375 332.705 C 283.020 332.774,287.892 332.668,288.155 332.405 C 288.378 332.182,289.143 332.000,289.856 332.000 C 290.569 332.000,291.264 331.820,291.400 331.600 C 291.536 331.380,292.076 331.200,292.600 331.200 C 293.124 331.200,293.664 331.020,293.800 330.800 C 293.936 330.580,294.361 330.400,294.745 330.400 C 295.642 330.400,299.387 328.539,300.016 327.781 C 300.281 327.461,300.740 327.200,301.035 327.200 C 301.736 327.200,310.000 318.936,310.000 318.235 C 310.000 317.940,310.262 317.481,310.582 317.215 C 311.328 316.595,314.000 311.206,314.000 310.320 C 314.000 309.950,314.180 309.536,314.400 309.400 C 314.620 309.264,314.800 308.724,314.800 308.200 C 314.800 307.676,314.980 307.136,315.200 307.000 C 315.420 306.864,315.600 306.324,315.600 305.800 C 315.600 305.276,315.780 304.736,316.000 304.600 C 316.220 304.464,316.400 303.409,316.400 302.256 C 316.400 301.103,316.578 299.982,316.796 299.764 C 317.049 299.511,317.236 286.412,317.316 263.384 C 317.385 243.593,317.583 226.860,317.757 226.200 C 318.459 223.539,320.982 218.809,321.703 218.803 C 321.870 218.801,322.535 218.330,323.180 217.755 C 324.624 216.468,326.253 215.600,327.222 215.600 C 327.624 215.600,328.064 215.420,328.200 215.200 C 328.336 214.980,329.427 214.800,330.624 214.800 C 331.821 214.800,332.800 214.620,332.800 214.400 C 332.800 214.161,334.333 214.000,336.600 214.000 L 340.400 214.000 340.400 201.200 L 340.400 188.400 336.424 188.400 C 334.204 188.400,332.338 188.223,332.200 188.000 C 332.064 187.780,331.164 187.600,330.200 187.600 C 329.236 187.600,328.336 187.420,328.200 187.200 C 328.064 186.980,327.609 186.800,327.189 186.800 C 326.475 186.800,323.646 185.419,323.200 184.854 C 323.090 184.714,322.640 184.403,322.200 184.162 C 320.389 183.172,318.000 178.079,318.000 175.209 C 318.000 174.350,317.820 173.536,317.600 173.400 C 317.338 173.238,317.200 160.470,317.200 136.400 C 317.200 112.330,317.062 99.562,316.800 99.400 C 316.580 99.264,316.400 98.364,316.400 97.400 C 316.400 96.436,316.220 95.536,316.000 95.400 C 315.780 95.264,315.600 94.544,315.600 93.800 C 315.600 93.056,315.420 92.336,315.200 92.200 C 314.980 92.064,314.801 91.648,314.803 91.276 C 314.827 85.479,300.150 69.600,294.767 69.600 C 294.371 69.600,293.936 69.420,293.800 69.200 C 293.664 68.980,293.124 68.800,292.600 68.800 C 292.076 68.800,291.536 68.620,291.400 68.400 C 291.264 68.180,290.544 68.000,289.800 68.000 C 289.056 68.000,288.336 67.820,288.200 67.600 C 287.806 66.962,261.228 67.062,260.982 67.703 " stroke="none" fill="#fcfcfc" fill-rule="evenodd"></path><path id="path1" d="M114.200 66.671 C 109.749 67.052,100.988 70.127,99.604 71.795 C 99.328 72.128,98.866 72.400,98.578 72.400 C 97.914 72.400,89.600 80.743,89.600 81.408 C 89.600 81.680,89.332 82.124,89.005 82.396 C 88.205 83.060,85.494 88.774,84.442 92.011 C 82.250 98.761,82.256 98.632,81.988 137.600 C 81.851 157.510,81.592 174.322,81.412 174.959 C 81.193 175.733,81.222 176.034,81.498 175.863 C 82.409 175.300,82.530 171.232,82.667 136.616 C 82.757 113.611,82.951 100.489,83.204 100.236 C 83.422 100.018,83.600 98.897,83.600 97.744 C 83.600 96.591,83.780 95.536,84.000 95.400 C 84.220 95.264,84.400 94.724,84.400 94.200 C 84.400 93.676,84.580 93.136,84.800 93.000 C 85.020 92.864,85.200 92.324,85.200 91.800 C 85.200 91.276,85.380 90.736,85.600 90.600 C 85.820 90.464,86.000 90.050,86.000 89.680 C 86.000 88.794,88.672 83.405,89.418 82.785 C 89.738 82.519,90.000 82.065,90.000 81.775 C 90.000 81.047,98.196 72.800,98.919 72.800 C 99.239 72.800,99.719 72.539,99.984 72.219 C 100.613 71.461,104.358 69.600,105.255 69.600 C 105.639 69.600,106.064 69.420,106.200 69.200 C 106.336 68.980,106.876 68.800,107.400 68.800 C 107.924 68.800,108.464 68.620,108.600 68.400 C 108.736 68.180,109.431 68.000,110.144 68.000 C 110.857 68.000,111.622 67.818,111.845 67.595 C 112.108 67.332,116.980 67.226,125.625 67.295 L 139.000 67.400 139.000 81.200 L 139.000 95.000 132.000 95.106 C 125.515 95.205,124.853 95.284,123.000 96.187 C 120.125 97.587,117.200 100.908,117.200 102.771 C 117.200 103.201,117.020 103.664,116.800 103.800 C 116.580 103.936,116.400 105.016,116.400 106.200 C 116.400 107.384,116.220 108.464,116.000 108.600 C 115.738 108.762,115.600 120.663,115.600 143.000 C 115.600 165.337,115.462 177.238,115.200 177.400 C 114.980 177.536,114.800 178.256,114.800 179.000 C 114.800 179.744,114.620 180.464,114.400 180.600 C 114.180 180.736,114.000 181.276,114.000 181.800 C 114.000 182.324,113.820 182.864,113.600 183.000 C 113.380 183.136,113.200 183.687,113.200 184.224 C 113.200 184.761,113.020 185.200,112.800 185.200 C 112.580 185.200,112.400 185.436,112.400 185.725 C 112.400 186.013,112.040 186.636,111.600 187.108 C 111.160 187.580,110.800 188.119,110.800 188.304 C 110.800 188.882,106.760 192.800,106.164 192.800 C 105.854 192.800,105.600 192.980,105.600 193.200 C 105.600 193.420,105.280 193.600,104.888 193.600 C 104.497 193.600,103.917 193.960,103.600 194.400 C 103.283 194.840,102.624 195.200,102.135 195.200 C 101.647 195.200,101.136 195.380,101.000 195.600 C 100.864 195.820,100.324 196.000,99.800 196.000 C 99.276 196.000,98.736 196.180,98.600 196.400 C 98.464 196.620,97.924 196.800,97.400 196.800 C 96.876 196.800,96.336 196.980,96.200 197.200 C 96.064 197.420,95.164 197.600,94.200 197.600 C 93.236 197.600,92.336 197.780,92.200 198.000 C 92.064 198.220,91.333 198.400,90.576 198.400 C 89.819 198.400,89.200 198.580,89.200 198.800 C 89.200 199.020,89.999 199.200,90.976 199.200 C 91.953 199.200,92.864 199.380,93.000 199.600 C 93.136 199.820,93.856 200.000,94.600 200.000 C 95.344 200.000,96.064 200.180,96.200 200.400 C 96.336 200.620,96.881 200.800,97.411 200.800 C 97.942 200.800,99.017 201.160,99.800 201.600 C 100.583 202.040,101.461 202.400,101.751 202.400 C 102.504 202.400,104.629 203.512,105.207 204.208 C 105.477 204.534,105.907 204.800,106.163 204.800 C 106.749 204.800,110.800 208.874,110.800 209.464 C 110.800 209.705,111.066 210.123,111.392 210.393 C 112.161 211.032,113.200 213.126,113.200 214.038 C 113.200 214.431,113.380 214.864,113.600 215.000 C 113.820 215.136,114.000 215.687,114.000 216.224 C 114.000 216.761,114.180 217.200,114.400 217.200 C 114.620 217.200,114.800 217.819,114.800 218.576 C 114.800 219.333,114.980 220.064,115.200 220.200 C 115.462 220.362,115.600 232.530,115.600 255.400 C 115.600 278.270,115.738 290.438,116.000 290.600 C 116.220 290.736,116.400 291.996,116.400 293.400 C 116.400 294.804,116.580 296.064,116.800 296.200 C 117.020 296.336,117.200 296.799,117.200 297.229 C 117.200 299.092,120.125 302.413,123.000 303.813 C 124.853 304.716,125.515 304.795,132.000 304.894 L 139.000 305.000 139.000 318.800 L 139.000 332.600 125.625 332.705 C 116.980 332.774,112.108 332.668,111.845 332.405 C 111.622 332.182,110.857 332.000,110.144 332.000 C 109.431 332.000,108.736 331.820,108.600 331.600 C 108.464 331.380,107.924 331.200,107.400 331.200 C 106.876 331.200,106.336 331.020,106.200 330.800 C 106.064 330.580,105.639 330.400,105.255 330.400 C 104.358 330.400,100.613 328.539,99.984 327.781 C 99.719 327.461,99.288 327.200,99.026 327.200 C 96.326 327.200,85.200 312.360,85.200 308.759 C 85.200 308.368,85.020 307.936,84.800 307.800 C 84.580 307.664,84.400 306.944,84.400 306.200 C 84.400 305.456,84.220 304.736,84.000 304.600 C 83.780 304.464,83.600 303.564,83.600 302.600 C 83.600 301.636,83.420 300.736,83.200 300.600 C 82.938 300.438,82.800 287.670,82.800 263.600 C 82.800 239.530,82.662 226.762,82.400 226.600 C 82.180 226.464,82.000 225.650,82.000 224.791 C 82.000 221.921,79.611 216.828,77.800 215.838 C 77.360 215.597,76.910 215.286,76.800 215.146 C 76.354 214.581,73.525 213.200,72.811 213.200 C 72.391 213.200,71.936 213.020,71.800 212.800 C 71.664 212.580,70.764 212.400,69.800 212.400 C 68.836 212.400,67.936 212.220,67.800 212.000 C 67.662 211.777,65.796 211.600,63.576 211.600 L 59.600 211.600 59.600 198.800 L 59.600 186.000 63.400 186.000 C 65.667 186.000,67.200 185.839,67.200 185.600 C 67.200 185.380,67.999 185.200,68.976 185.200 C 69.953 185.200,70.864 185.020,71.000 184.800 C 71.136 184.580,71.756 184.400,72.378 184.400 C 75.161 184.400,82.366 177.833,81.039 176.506 C 80.920 176.387,80.655 176.729,80.451 177.267 C 78.663 181.968,73.228 184.595,64.200 185.121 L 59.400 185.400 59.400 198.800 L 59.400 212.200 64.400 212.448 C 75.483 212.998,79.968 216.090,81.447 224.200 C 81.834 226.321,81.966 235.344,81.991 261.400 C 82.025 296.377,82.124 299.015,83.633 305.400 C 84.470 308.940,88.508 318.000,89.248 318.000 C 89.442 318.000,89.600 318.255,89.600 318.567 C 89.600 319.278,97.877 327.600,98.584 327.600 C 98.869 327.600,99.328 327.872,99.604 328.205 C 100.152 328.865,104.171 330.844,106.400 331.551 C 111.722 333.238,112.020 333.269,125.320 333.480 C 137.469 333.673,138.497 333.636,139.220 332.982 C 140.196 332.099,140.459 305.675,139.500 304.888 C 139.217 304.656,135.958 304.413,132.000 304.330 C 124.531 304.172,123.535 303.945,120.496 301.712 C 116.726 298.941,116.722 298.904,116.413 257.200 C 116.170 224.374,116.080 220.776,115.444 218.600 C 113.907 213.338,112.866 210.884,111.792 209.993 C 111.466 209.723,111.196 209.299,111.191 209.051 C 111.178 208.436,107.262 204.714,105.900 204.023 C 105.295 203.716,104.800 203.343,104.800 203.193 C 104.800 202.940,103.408 202.294,100.000 200.963 C 99.230 200.663,97.340 200.118,95.800 199.753 C 92.344 198.934,91.838 198.532,93.848 198.198 C 95.416 197.938,98.919 196.908,101.731 195.881 C 107.118 193.913,112.366 188.529,114.169 183.120 C 116.246 176.891,116.126 179.155,116.399 141.200 C 116.616 111.108,116.745 105.500,117.265 103.800 C 119.250 97.298,121.811 95.886,132.000 95.670 C 135.958 95.587,139.217 95.344,139.500 95.112 C 140.419 94.358,140.201 67.906,139.269 67.062 C 138.576 66.435,120.295 66.150,114.200 66.671 M260.700 67.085 C 259.796 68.089,259.609 94.381,260.500 95.112 C 260.783 95.344,264.042 95.587,268.000 95.670 C 278.189 95.886,280.759 97.303,282.732 103.800 C 283.248 105.497,283.379 111.336,283.599 142.400 C 283.834 175.590,283.923 179.224,284.558 181.400 C 286.088 186.649,287.134 189.115,288.208 190.007 C 288.534 190.277,288.804 190.701,288.809 190.949 C 288.822 191.564,292.738 195.286,294.100 195.977 C 294.705 196.284,295.200 196.657,295.200 196.807 C 295.200 197.061,296.287 197.566,299.900 198.992 C 300.725 199.317,302.660 199.882,304.200 200.247 C 307.656 201.066,308.162 201.468,306.152 201.802 C 302.786 202.361,295.964 204.779,294.981 205.762 C 294.630 206.113,294.152 206.400,293.919 206.400 C 292.317 206.400,287.049 213.225,285.831 216.880 C 283.760 223.091,283.878 220.865,283.599 258.800 C 283.313 297.631,283.374 296.701,280.889 300.131 C 278.544 303.368,275.157 304.400,266.874 304.400 C 262.808 304.400,260.810 304.550,260.480 304.880 C 259.536 305.824,259.823 332.115,260.787 332.988 C 261.518 333.650,262.492 333.684,274.687 333.477 C 287.918 333.252,288.387 333.204,293.600 331.551 C 295.829 330.844,299.848 328.865,300.396 328.205 C 300.672 327.872,301.123 327.600,301.398 327.600 C 302.050 327.600,310.400 319.250,310.400 318.598 C 310.400 318.323,310.668 317.876,310.995 317.604 C 311.795 316.940,314.506 311.226,315.558 307.989 C 317.750 301.239,317.744 301.368,318.012 262.400 C 318.149 242.490,318.408 225.678,318.588 225.041 C 318.807 224.267,318.778 223.966,318.502 224.137 C 317.591 224.700,317.470 228.768,317.333 263.384 C 317.243 286.389,317.049 299.511,316.796 299.764 C 316.578 299.982,316.400 301.103,316.400 302.256 C 316.400 303.409,316.220 304.464,316.000 304.600 C 315.780 304.736,315.600 305.276,315.600 305.800 C 315.600 306.324,315.420 306.864,315.200 307.000 C 314.980 307.136,314.800 307.676,314.800 308.200 C 314.800 308.724,314.620 309.264,314.400 309.400 C 314.180 309.536,314.000 309.950,314.000 310.320 C 314.000 311.206,311.328 316.595,310.582 317.215 C 310.262 317.481,310.000 317.940,310.000 318.235 C 310.000 318.936,301.736 327.200,301.035 327.200 C 300.740 327.200,300.281 327.461,300.016 327.781 C 299.387 328.539,295.642 330.400,294.745 330.400 C 294.361 330.400,293.936 330.580,293.800 330.800 C 293.664 331.020,293.124 331.200,292.600 331.200 C 292.076 331.200,291.536 331.380,291.400 331.600 C 291.264 331.820,290.569 332.000,289.856 332.000 C 289.143 332.000,288.378 332.182,288.155 332.405 C 287.892 332.668,283.020 332.774,274.375 332.705 L 261.000 332.600 261.000 318.800 L 261.000 305.000 267.790 304.890 C 271.525 304.829,274.756 304.604,274.970 304.390 C 275.185 304.175,275.656 304.000,276.019 304.000 C 278.314 304.000,282.800 299.521,282.800 297.229 C 282.800 296.799,282.980 296.336,283.200 296.200 C 283.420 296.064,283.600 294.804,283.600 293.400 C 283.600 291.996,283.780 290.736,284.000 290.600 C 284.262 290.438,284.400 278.670,284.400 256.600 C 284.400 234.530,284.538 222.762,284.800 222.600 C 285.020 222.464,285.200 221.744,285.200 221.000 C 285.200 220.256,285.380 219.536,285.600 219.400 C 285.820 219.264,286.000 218.724,286.000 218.200 C 286.000 217.676,286.180 217.136,286.400 217.000 C 286.620 216.864,286.800 216.313,286.800 215.776 C 286.800 215.239,286.980 214.800,287.200 214.800 C 287.420 214.800,287.600 214.564,287.600 214.275 C 287.600 213.987,287.960 213.364,288.400 212.892 C 288.840 212.420,289.200 211.881,289.200 211.696 C 289.200 211.225,293.186 207.200,293.652 207.200 C 293.862 207.200,294.420 206.840,294.892 206.400 C 295.364 205.960,295.987 205.600,296.275 205.600 C 296.564 205.600,296.800 205.420,296.800 205.200 C 296.800 204.980,297.239 204.800,297.776 204.800 C 298.313 204.800,298.864 204.620,299.000 204.400 C 299.136 204.180,299.676 204.000,300.200 204.000 C 300.724 204.000,301.264 203.820,301.400 203.600 C 301.536 203.380,302.076 203.200,302.600 203.200 C 303.124 203.200,303.664 203.020,303.800 202.800 C 303.936 202.580,304.836 202.400,305.800 202.400 C 306.764 202.400,307.664 202.220,307.800 202.000 C 307.936 201.780,308.667 201.600,309.424 201.600 C 310.181 201.600,310.800 201.420,310.800 201.200 C 310.800 200.980,310.001 200.800,309.024 200.800 C 308.047 200.800,307.136 200.620,307.000 200.400 C 306.864 200.180,306.144 200.000,305.400 200.000 C 304.656 200.000,303.936 199.820,303.800 199.600 C 303.664 199.380,303.119 199.200,302.589 199.200 C 302.058 199.200,300.983 198.840,300.200 198.400 C 299.417 197.960,298.539 197.600,298.249 197.600 C 297.496 197.600,295.371 196.488,294.793 195.792 C 294.523 195.466,294.093 195.200,293.837 195.200 C 293.251 195.200,289.200 191.126,289.200 190.536 C 289.200 190.295,288.934 189.877,288.608 189.607 C 287.839 188.968,286.800 186.874,286.800 185.962 C 286.800 185.569,286.620 185.136,286.400 185.000 C 286.180 184.864,286.000 184.313,286.000 183.776 C 286.000 183.239,285.820 182.800,285.600 182.800 C 285.380 182.800,285.200 182.181,285.200 181.424 C 285.200 180.667,285.020 179.936,284.800 179.800 C 284.538 179.638,284.400 167.470,284.400 144.600 C 284.400 121.730,284.262 109.562,284.000 109.400 C 283.780 109.264,283.600 108.004,283.600 106.600 C 283.600 105.196,283.420 103.936,283.200 103.800 C 282.980 103.664,282.800 103.201,282.800 102.771 C 282.800 100.908,279.875 97.587,277.000 96.187 C 275.147 95.284,274.485 95.205,268.000 95.106 L 261.000 95.000 261.000 81.200 L 261.000 67.400 274.375 67.295 C 283.020 67.226,287.892 67.332,288.155 67.595 C 288.378 67.818,289.143 68.000,289.856 68.000 C 290.569 68.000,291.264 68.180,291.400 68.400 C 291.536 68.620,292.076 68.800,292.600 68.800 C 293.124 68.800,293.664 68.980,293.800 69.200 C 293.936 69.420,294.371 69.600,294.767 69.600 C 300.150 69.600,314.827 85.479,314.803 91.276 C 314.801 91.648,314.980 92.064,315.200 92.200 C 315.420 92.336,315.600 93.056,315.600 93.800 C 315.600 94.544,315.780 95.264,316.000 95.400 C 316.220 95.536,316.400 96.436,316.400 97.400 C 316.400 98.364,316.580 99.264,316.800 99.400 C 317.062 99.562,317.200 112.330,317.200 136.400 C 317.200 160.470,317.338 173.238,317.600 173.400 C 317.820 173.536,318.000 174.350,318.000 175.209 C 318.000 178.079,320.389 183.172,322.200 184.162 C 322.640 184.403,323.090 184.714,323.200 184.854 C 323.646 185.419,326.475 186.800,327.189 186.800 C 327.609 186.800,328.064 186.980,328.200 187.200 C 328.336 187.420,329.236 187.600,330.200 187.600 C 331.164 187.600,332.064 187.780,332.200 188.000 C 332.338 188.223,334.204 188.400,336.424 188.400 L 340.400 188.400 340.400 201.200 L 340.400 214.000 336.600 214.000 C 334.333 214.000,332.800 214.161,332.800 214.400 C 332.800 214.620,331.821 214.800,330.624 214.800 C 329.427 214.800,328.336 214.980,328.200 215.200 C 328.064 215.420,327.624 215.600,327.222 215.600 C 326.253 215.600,324.624 216.468,323.180 217.755 C 322.535 218.330,321.890 218.800,321.748 218.800 C 321.117 218.800,318.565 223.099,318.961 223.494 C 319.080 223.613,319.352 223.281,319.565 222.755 C 321.628 217.667,326.472 215.361,336.200 214.837 L 340.600 214.600 340.600 201.200 L 340.600 187.800 338.000 187.733 C 325.758 187.418,320.550 184.526,318.669 177.000 C 318.427 176.030,318.167 160.602,318.010 137.800 C 317.733 97.644,317.821 99.421,315.760 92.400 C 314.994 89.791,311.236 82.000,310.743 82.000 C 310.555 82.000,310.400 81.769,310.400 81.487 C 310.400 81.206,309.500 80.031,308.400 78.878 C 307.300 77.725,306.400 76.600,306.400 76.378 C 306.400 76.156,306.085 75.854,305.701 75.707 C 305.317 75.559,304.601 75.037,304.110 74.547 C 300.983 71.420,296.925 69.357,290.000 67.375 C 286.198 66.287,261.637 66.044,260.700 67.085 " stroke="none" fill="#747474" fill-rule="evenodd"></path><path id="path2" d="M0.000 200.000 L 0.000 400.000 200.000 400.000 L 400.000 400.000 400.000 200.000 L 400.000 0.000 200.000 0.000 L 0.000 0.000 0.000 200.000 M139.269 67.062 C 140.201 67.906,140.419 94.358,139.500 95.112 C 139.217 95.344,135.958 95.587,132.000 95.670 C 121.811 95.886,119.250 97.298,117.265 103.800 C 116.745 105.500,116.616 111.108,116.399 141.200 C 116.126 179.155,116.246 176.891,114.169 183.120 C 112.366 188.529,107.118 193.913,101.731 195.881 C 98.919 196.908,95.416 197.938,93.848 198.198 C 91.838 198.532,92.344 198.934,95.800 199.753 C 97.340 200.118,99.230 200.663,100.000 200.963 C 103.408 202.294,104.800 202.940,104.800 203.193 C 104.800 203.343,105.295 203.716,105.900 204.023 C 107.262 204.714,111.178 208.436,111.191 209.051 C 111.196 209.299,111.466 209.723,111.792 209.993 C 112.866 210.884,113.907 213.338,115.444 218.600 C 116.080 220.776,116.170 224.374,116.413 257.200 C 116.722 298.904,116.726 298.941,120.496 301.712 C 123.535 303.945,124.531 304.172,132.000 304.330 C 135.958 304.413,139.217 304.656,139.500 304.888 C 140.459 305.675,140.196 332.099,139.220 332.982 C 138.497 333.636,137.469 333.673,125.320 333.480 C 112.020 333.269,111.722 333.238,106.400 331.551 C 104.171 330.844,100.152 328.865,99.604 328.205 C 99.328 327.872,98.869 327.600,98.584 327.600 C 97.877 327.600,89.600 319.278,89.600 318.567 C 89.600 318.255,89.442 318.000,89.248 318.000 C 88.508 318.000,84.470 308.940,83.633 305.400 C 82.124 299.015,82.025 296.377,81.991 261.400 C 81.966 235.344,81.834 226.321,81.447 224.200 C 79.968 216.090,75.483 212.998,64.400 212.448 L 59.400 212.200 59.400 198.800 L 59.400 185.400 64.200 185.121 C 74.577 184.516,79.197 181.751,81.444 174.800 C 81.621 174.250,81.873 157.510,82.002 137.600 C 82.256 98.621,82.248 98.767,84.442 92.011 C 85.494 88.774,88.205 83.060,89.005 82.396 C 89.332 82.124,89.600 81.680,89.600 81.408 C 89.600 80.743,97.914 72.400,98.578 72.400 C 98.866 72.400,99.328 72.128,99.604 71.795 C 100.606 70.588,105.911 68.432,110.800 67.245 C 115.124 66.195,138.147 66.047,139.269 67.062 M290.000 67.375 C 296.925 69.357,300.983 71.420,304.110 74.547 C 304.601 75.037,305.317 75.559,305.701 75.707 C 306.085 75.854,306.400 76.156,306.400 76.378 C 306.400 76.600,307.300 77.725,308.400 78.878 C 309.500 80.031,310.400 81.206,310.400 81.487 C 310.400 81.769,310.555 82.000,310.743 82.000 C 311.236 82.000,314.994 89.791,315.760 92.400 C 317.821 99.421,317.733 97.644,318.010 137.800 C 318.167 160.602,318.427 176.030,318.669 177.000 C 320.550 184.526,325.758 187.418,338.000 187.733 L 340.600 187.800 340.600 201.200 L 340.600 214.600 336.200 214.837 C 325.270 215.426,320.882 218.003,318.556 225.200 C 318.379 225.750,318.127 242.490,317.998 262.400 C 317.744 301.379,317.752 301.233,315.558 307.989 C 314.506 311.226,311.795 316.940,310.995 317.604 C 310.668 317.876,310.400 318.323,310.400 318.598 C 310.400 319.250,302.050 327.600,301.398 327.600 C 301.123 327.600,300.672 327.872,300.396 328.205 C 299.848 328.865,295.829 330.844,293.600 331.551 C 288.387 333.204,287.918 333.252,274.687 333.477 C 262.492 333.684,261.518 333.650,260.787 332.988 C 259.823 332.115,259.536 305.824,260.480 304.880 C 260.810 304.550,262.808 304.400,266.874 304.400 C 275.157 304.400,278.544 303.368,280.889 300.131 C 283.374 296.701,283.313 297.631,283.599 258.800 C 283.878 220.865,283.760 223.091,285.831 216.880 C 287.049 213.225,292.317 206.400,293.919 206.400 C 294.152 206.400,294.630 206.113,294.981 205.762 C 295.964 204.779,302.786 202.361,306.152 201.802 C 308.162 201.468,307.656 201.066,304.200 200.247 C 302.660 199.882,300.725 199.317,299.900 198.992 C 296.287 197.566,295.200 197.061,295.200 196.807 C 295.200 196.657,294.705 196.284,294.100 195.977 C 292.738 195.286,288.822 191.564,288.809 190.949 C 288.804 190.701,288.534 190.277,288.208 190.007 C 287.134 189.115,286.088 186.649,284.558 181.400 C 283.923 179.224,283.834 175.590,283.599 142.400 C 283.379 111.336,283.248 105.497,282.732 103.800 C 280.759 97.303,278.189 95.886,268.000 95.670 C 264.042 95.587,260.783 95.344,260.500 95.112 C 259.609 94.381,259.796 68.089,260.700 67.085 C 261.637 66.044,286.198 66.287,290.000 67.375 " stroke="none" fill="#242424" fill-rule="evenodd"></path></g></svg>