<svg xmlns="http://www.w3.org/2000/svg" xmlns:xlink="http://www.w3.org/1999/xlink" width="100px" height="100px" viewBox="0 0 656 289">
    <path fill="#FFF" fill-rule="evenodd" d="M607.014,113.997 C607.404,101.498 601.888,95.247 590.462,95.247 C585.577,95.247 581.036,96.689 576.839,99.568 C572.639,102.450 570.148,106.284 569.368,111.067 C567.706,118.978 574.690,124.397 590.315,127.327 C603.888,130.550 614.387,134.285 621.809,138.533 C629.230,142.781 634.895,148.032 638.802,154.280 C642.706,160.531 644.514,168.050 644.222,176.839 C643.929,186.411 640.802,194.955 634.847,202.474 C628.889,209.995 620.271,216.001 608.992,220.491 C597.713,224.982 585.481,227.083 572.298,226.790 C560.872,226.692 550.252,224.300 540.437,219.612 C530.623,214.925 522.955,208.553 517.439,200.496 C511.921,192.439 509.067,183.188 508.870,172.737 L553.694,173.030 C553.889,187.093 560.920,194.028 574.788,193.831 C580.743,193.831 585.822,192.490 590.022,189.803 C594.220,187.118 596.857,183.335 597.932,178.450 C599.200,172.005 594.220,167.171 582.991,163.948 L572.591,161.312 C555.598,156.821 543.147,150.522 535.237,142.415 C527.327,134.310 523.615,124.690 524.104,113.558 C524.592,98.323 531.355,85.945 544.392,76.424 C557.430,66.902 573.323,62.240 592.073,62.435 C610.725,62.631 625.838,67.367 637.410,76.644 C648.982,85.922 654.865,98.422 655.061,114.144 L607.014,113.997 ZM501.827,48.665 C494.404,48.665 488.154,46.486 483.077,42.128 C477.998,37.770 475.361,32.160 475.167,25.303 C474.970,18.057 477.511,12.081 482.784,7.379 C488.057,2.678 494.356,0.325 501.681,0.325 C509.101,0.131 515.352,2.214 520.431,6.571 C525.507,10.929 528.144,16.587 528.341,23.541 C528.535,30.496 526.118,36.374 521.090,41.174 C516.059,45.973 509.639,48.471 501.827,48.665 ZM492.159,228.841 C489.815,247.687 482.686,262.361 470.772,272.859 C458.857,283.356 443.721,288.508 425.362,288.314 C418.038,288.117 409.981,287.190 401.192,285.530 L405.147,248.030 C410.519,249.202 414.962,249.788 418.477,249.788 C432.638,249.983 441.036,242.464 443.673,227.230 L471.505,65.364 L519.845,65.364 L492.159,228.841 ZM409.079,225.618 C401.656,225.618 395.456,223.373 390.475,218.880 C385.495,214.389 382.906,208.626 382.712,201.595 C382.515,194.174 385.055,188.022 390.329,183.138 C395.602,178.256 401.901,175.814 409.225,175.814 C416.451,175.814 422.604,178.036 427.682,182.479 C432.759,186.923 435.396,192.710 435.593,199.837 C435.787,207.161 433.297,213.291 428.122,218.221 C422.945,223.153 416.598,225.618 409.079,225.618 ZM377.233,48.665 C369.909,48.665 363.683,46.541 358.556,42.293 C353.430,38.045 350.768,32.405 350.573,25.374 C350.376,18.247 352.892,12.289 358.117,7.503 C363.340,2.719 369.664,0.325 377.087,0.325 C384.605,0.325 390.879,2.474 395.910,6.771 C400.938,11.069 403.550,16.683 403.747,23.616 C403.941,30.844 401.451,36.825 396.276,41.561 C391.099,46.298 384.752,48.665 377.233,48.665 ZM367.126,223.860 L318.786,223.860 L346.325,65.364 L394.665,65.364 L367.126,223.860 ZM307.231,223.860 L258.891,223.860 L275.737,124.077 L276.323,115.444 C276.323,105.789 271.782,100.814 262.700,100.521 C254.204,100.521 246.294,104.862 238.970,113.542 L219.780,223.860 L171.440,223.860 L188.139,124.370 L188.725,115.590 C188.725,105.544 184.184,100.521 175.102,100.521 C166.801,100.521 158.989,104.862 151.665,113.542 L132.182,223.860 L83.989,223.860 L111.528,65.364 L156.352,65.218 L153.130,84.261 C165.824,69.319 181.255,62.046 199.419,62.435 C208.988,62.631 216.850,64.877 223.003,69.173 C229.155,73.471 233.257,79.184 235.307,86.312 C249.272,70.004 265.337,62.046 283.501,62.435 C298.149,62.728 309.012,68.221 316.094,78.914 C323.173,89.607 325.736,104.672 323.784,124.105 L307.231,223.860 ZM93.861,99.642 L68.519,99.642 L56.214,172.444 C55.530,177.425 55.848,181.185 57.167,183.724 C58.485,186.264 61.781,187.631 67.054,187.825 C69.105,187.924 73.303,187.679 79.652,187.093 L76.136,222.835 C68.029,225.472 59.387,226.692 50.209,226.497 C35.267,226.300 24.084,221.908 16.664,213.314 C9.241,204.721 6.213,193.051 7.582,178.304 L20.472,99.642 L0.843,99.642 L6.703,65.364 L26.332,65.364 L33.216,25.960 L81.410,25.960 L74.525,65.364 L99.867,65.364 L93.861,99.642 Z" />
</svg>